<?xml version="1.0" standalone="no"?>
<!DOCTYPE svg PUBLIC "-//W3C//DTD SVG 20010904//EN"
 "http://www.w3.org/TR/2001/REC-SVG-20010904/DTD/svg10.dtd">
<svg version="1.0" xmlns="http://www.w3.org/2000/svg"
 width="300.000000pt" height="300.000000pt" viewBox="0 0 300.000000 300.000000"
 preserveAspectRatio="xMidYMid meet">
<metadata>
Created by potrace 1.10, written by Peter Selinger 2001-2011
</metadata>
<g transform="translate(0.000000,300.000000) scale(0.100000,-0.100000)"
fill="#000000" stroke="none">
<path d="M1270 2054 c-127 -15 -201 -39 -230 -75 -13 -16 -21 -17 -57 -9 -79
18 -181 -20 -217 -81 -22 -38 -20 -105 4 -145 30 -47 99 -78 176 -78 41 0 70
6 87 17 22 14 27 15 38 1 6 -8 10 -17 7 -19 -2 -2 -38 -11 -79 -20 -41 -8 -99
-28 -129 -43 -45 -22 -56 -32 -58 -55 -2 -17 4 -37 14 -48 20 -23 103 -55 167
-64 25 -4 52 -14 58 -22 36 -43 147 -64 339 -64 191 0 312 23 337 64 4 7 39
21 76 31 90 24 131 52 135 93 3 28 -2 36 -36 58 -24 16 -72 32 -123 43 -46 9
-85 17 -87 18 -1 0 9 21 23 46 52 94 57 248 9 293 -38 35 -142 57 -289 60 -71
2 -146 1 -165 -1z m330 -39 c113 -26 147 -48 115 -75 -11 -9 -32 -7 -92 7
-108 25 -379 25 -471 -1 -49 -13 -67 -14 -78 -5 -8 6 -14 15 -14 20 0 14 59
40 124 54 86 19 334 19 416 0z m-547 -95 c71 -38 136 -51 283 -57 158 -6 283
7 353 38 l44 19 -5 -73 c-8 -126 -81 -233 -197 -289 -68 -33 -188 -37 -263 -8
-64 24 -144 90 -172 143 l-19 34 -49 -19 c-62 -23 -122 -23 -175 2 -46 21 -83
69 -83 110 0 40 37 89 83 111 54 25 139 20 200 -11z m522 9 c38 -5 71 -11 73
-13 7 -8 -96 -25 -184 -32 -89 -6 -284 9 -313 26 -9 5 11 12 55 19 131 21 222
21 369 0z m-460 -309 c10 -11 39 -34 63 -50 50 -33 42 -37 -32 -15 -47 14 -76
11 -59 -6 4 -4 42 -16 83 -25 160 -36 520 -14 520 32 0 8 -1 14 -2 14 -2 0
-25 -7 -52 -15 -67 -21 -88 -19 -51 4 17 10 42 31 57 46 25 25 32 27 75 20 77
-11 168 -43 189 -66 19 -21 19 -21 -9 -45 -105 -90 -652 -118 -935 -47 -69 17
-127 51 -127 73 0 28 145 84 256 99 3 1 14 -8 24 -19z m584 -205 c-3 -2 -32
-11 -64 -20 -129 -34 -433 -29 -519 10 -31 14 -31 14 14 7 68 -10 479 -7 525
5 38 9 54 9 44 -2z"/>
<path d="M897 1895 c-52 -18 -77 -43 -77 -75 0 -69 118 -112 206 -75 37 15 38
17 18 112 -8 41 -85 61 -147 38z m109 -23 c6 -4 14 -28 18 -54 7 -45 6 -48
-19 -54 -36 -9 -121 0 -140 16 -8 7 -15 26 -15 42 0 23 6 32 33 43 34 15 105
19 123 7z"/>
</g>
</svg>
